<svg width="158" height="64" viewBox="0 0 158 64" fill="none" xmlns="http://www.w3.org/2000/svg">
<path d="M12.4142 11.0005C12.4142 11.0005 18.517 32.0587 21.654 42.2036C21.8347 42.7621 22.6186 42.763 22.8048 42.2061L30.7418 18.4731C30.7418 18.4731 33.6552 11 41.771 11C48.4718 11 52.3424 15.9682 52.3424 15.9682L60.9891 27.9598C61.2512 28.3232 61.8009 28.2874 62.0142 27.8931L68.4327 16.0238C69.8985 13.3132 72.7232 11.6254 75.7941 11.6256L80.4508 11.6258L66.5347 36.509C66.1185 37.2605 65.8688 38.0955 65.8688 38.9722V53H56.7122L56.7124 39.3479C56.7124 38.3042 56.4211 37.2605 55.7968 36.4255L44.6843 20.9782C44.6843 20.9782 43.3941 19.2247 41.771 19.2247C39.5235 19.2247 38.8576 21.0199 38.8576 21.0199C35.6168 30.8089 32.3855 40.6012 29.1024 50.376C28.5759 51.9435 27.1122 52.9994 25.4654 52.9997C23.0881 53.0001 20.7109 52.9997 18.3336 52.9992C16.6734 52.999 15.2038 51.9358 14.693 50.3489C10.757 38.1202 6.90235 25.865 3 13.6254L12.4142 11.0005Z" fill="#E30613"/>
<path d="M76.2409 31.361C76.2409 42.6061 85.3156 51.722 96.5098 51.722C99.8887 51.722 103.267 51.7207 106.645 51.7195C110.023 51.7182 113.4 51.717 116.779 51.717V34.2697C116.779 29.1291 112.63 24.9618 107.513 24.9618H101.722C96.6044 24.9618 92.4561 29.1291 92.4561 34.2697H107.513V42.4141H96.5098C90.433 42.4141 85.5067 37.4655 85.5067 31.361C85.5067 25.2565 90.433 20.3079 96.5098 20.3079H141.101C143.66 20.3079 145.734 22.3916 145.734 24.9618C145.734 27.5321 143.66 29.6158 141.101 29.6158H129.519C124.402 29.6158 120.253 33.7831 120.253 38.9236V51.722H129.519V38.9236H134.782L148.448 52.6516L155 46.0699L146.709 37.7409C151.592 35.5755 155 30.6685 155 24.9618C155 17.251 148.777 11 141.101 11H96.5098C85.3156 11 76.2409 20.1159 76.2409 31.361Z" fill="#E30613"/>
</svg>
