<svg width="77" height="77" viewBox="0 0 77 77" fill="none" xmlns="http://www.w3.org/2000/svg">
<circle cx="34.6635" cy="38.1572" r="30.1572" fill="#1E60AB"/>
<path fill-rule="evenodd" clip-rule="evenodd" d="M40.1194 14.1692L39.2729 14.219L40.1194 14.2688C40.1426 14.466 40.3018 14.6216 40.5007 14.6392L40.5511 15.4972L40.6018 14.6361C40.788 14.608 40.9342 14.4582 40.957 14.2704L41.8293 14.219L40.957 14.1677C40.9342 13.9799 40.7879 13.8301 40.6018 13.802L40.5511 12.9409L40.5007 13.799C40.3018 13.8165 40.1426 13.9721 40.1194 14.1692Z" fill="white"/>
<circle cx="40.5985" cy="20.7739" r="0.301271" fill="white"/>
<circle cx="36.3205" cy="18.2432" r="0.241016" fill="white"/>
<circle cx="33.7295" cy="16.9176" r="0.241016" fill="white"/>
<circle cx="32.886" cy="14.4471" r="0.301271" fill="white"/>
<circle cx="36.2904" cy="14.8388" r="0.331398" fill="white"/>
<circle cx="34.6635" cy="11.2236" r="0.271143" fill="white"/>
<circle cx="29.0297" cy="16.7971" r="0.241016" fill="white"/>
<circle cx="29.7527" cy="17.2791" r="0.241016" fill="white"/>
<circle cx="30.4759" cy="17.7612" r="0.241016" fill="white"/>
<circle cx="29.3612" cy="18.6951" r="0.210889" fill="white"/>
<path fill-rule="evenodd" clip-rule="evenodd" d="M26.3815 23.0266L25.535 23.0764L26.3815 23.1262C26.4047 23.3234 26.5639 23.4789 26.7627 23.4965L26.8132 24.3546L26.8639 23.4934C27.05 23.4653 27.1963 23.3156 27.2191 23.1277L28.0914 23.0764L27.2191 23.0251C27.1963 22.8372 27.05 22.6875 26.8639 22.6594L26.8132 21.7982L26.7627 22.6563C26.5639 22.6739 26.4047 22.8294 26.3815 23.0266Z" fill="white"/>
<circle cx="24.8722" cy="23.8468" r="0.241016" fill="white"/>
<circle cx="23.7876" cy="22.5815" r="0.241016" fill="white"/>
<circle cx="17.1597" cy="53.6726" r="0.301271" fill="white"/>
<circle cx="16.0148" cy="52.7085" r="0.241016" fill="white"/>
<circle cx="16.3462" cy="51.0516" r="0.331398" fill="white"/>
<circle cx="13.1527" cy="51.3528" r="0.271143" fill="white"/>
<circle cx="20.9857" cy="52.4977" r="0.271143" fill="white"/>
<circle cx="24.0889" cy="49.6356" r="0.301271" fill="white"/>
<circle cx="24.0286" cy="44.032" r="0.241016" fill="white"/>
<path fill-rule="evenodd" clip-rule="evenodd" d="M23.4291 59.2996L22.5826 59.3493L23.4291 59.3991C23.4523 59.5963 23.6115 59.7519 23.8103 59.7695L23.8608 60.6275L23.9115 59.7664C24.0976 59.7383 24.2439 59.5885 24.2667 59.4007L25.139 59.3493L24.2667 59.298C24.2439 59.1102 24.0976 58.9604 23.9115 58.9323L23.8608 58.0712L23.8104 58.9292C23.6115 58.9468 23.4523 59.1024 23.4291 59.2996Z" fill="white"/>
<circle cx="25.9869" cy="53.7027" r="0.331398" fill="white"/>
<circle cx="23.0948" cy="55.9322" r="0.271143" fill="white"/>
<circle cx="26.3786" cy="56.5648" r="0.241016" fill="white"/>
<circle cx="32.9463" cy="55.902" r="0.241016" fill="white"/>
<circle cx="38.6103" cy="53.8534" r="0.241016" fill="white"/>
<path fill-rule="evenodd" clip-rule="evenodd" d="M53.0138 54.66L52.1674 54.7098L53.0138 54.7596C53.037 54.9568 53.1962 55.1123 53.3951 55.1299L53.4455 55.988L53.4962 55.1268C53.6824 55.0987 53.8286 54.949 53.8514 54.7611L54.7237 54.7098L53.8514 54.6585C53.8286 54.4707 53.6824 54.3209 53.4962 54.2928L53.4455 53.4316L53.3951 54.2897C53.1962 54.3073 53.037 54.4628 53.0138 54.66Z" fill="white"/>
<circle cx="45.7503" cy="52.5579" r="0.271143" fill="white"/>
<circle cx="45.7503" cy="49.1837" r="0.271143" fill="white"/>
<circle cx="48.0399" cy="49.6657" r="0.331398" fill="white"/>
<circle cx="48.0701" cy="47.5869" r="0.301271" fill="white"/>
<circle cx="52.3782" cy="47.0748" r="0.210889" fill="white"/>
<circle cx="52.8904" cy="48.551" r="0.301271" fill="white"/>
<circle cx="57.0178" cy="50.2682" r="0.271143" fill="white"/>
<circle cx="55.5717" cy="50.8106" r="0.271143" fill="white"/>
<circle cx="52.8904" cy="53.3713" r="0.301271" fill="white"/>
<circle cx="55.0896" cy="54.7271" r="0.271143" fill="white"/>
<circle cx="47.4675" cy="59.9993" r="0.241016" fill="white"/>
<path fill-rule="evenodd" clip-rule="evenodd" d="M55.6048 48.2128L54.7583 48.2626L55.6048 48.3124C55.628 48.5096 55.7872 48.6651 55.986 48.6827L56.0365 49.5408L56.0871 48.6796C56.2733 48.6515 56.4196 48.5018 56.4423 48.3139L57.3147 48.2626L56.4423 48.2113C56.4196 48.0235 56.2733 47.8737 56.0871 47.8456L56.0365 46.9844L55.986 47.8425C55.7872 47.8601 55.628 48.0156 55.6048 48.2128Z" fill="white"/>
<path d="M36.0193 26.4678C34.3989 25.0003 31.6609 22.7864 29.0599 21.5056C25.0831 19.5473 22.8537 19.939 21.4679 20.5415C20.0821 21.144 19.2084 23.2831 19.2084 25.5728C19.2084 27.8624 19.9013 30.7847 20.534 32.3513C21.0401 33.6046 22.211 36.0469 22.7332 37.1114C23.7235 39.1299 25.3543 41.6003 26.5594 43.1971C27.0145 43.8002 27.4228 44.324 27.7614 44.7583L27.7618 44.7588C28.2571 45.3944 28.6032 45.8385 28.7285 46.0592L29.9095 47.5353C30.1486 47.9309 30.6522 48.7059 31.0182 49.0719C31.3484 49.4021 31.4701 49.605 31.5793 49.7873C31.6296 49.8711 31.6772 49.9505 31.7412 50.0359C32.0124 50.3974 32.3739 50.8494 33.0969 51.482C33.6353 51.9531 33.9805 52.017 34.1472 52.0479C34.1597 52.0502 34.1711 52.0523 34.1815 52.0544C34.3723 52.0946 34.8142 52.0665 35.0552 51.6327C35.2942 51.2025 34.9266 50.8861 34.5689 50.5782C34.4756 50.4979 34.383 50.4182 34.302 50.3372C33.9104 49.9455 33.2175 49.4033 32.6149 49.0719C32.1329 48.8067 31.1788 47.7664 30.6868 47.204C29.8533 46.1997 27.891 43.8056 26.71 42.2631C25.2338 40.335 23.0345 36.4486 22.2512 34.6108C21.4679 32.7731 20.8352 31.1462 20.3532 29.5194C19.8712 27.8925 19.7808 26.8381 19.9314 24.6388C20.0821 22.4395 21.2269 21.144 22.7031 20.8127C24.0677 20.5063 24.5313 20.6119 25.2362 20.7724L25.2426 20.7738C25.2982 20.7865 25.3554 20.7995 25.4145 20.8127C26.228 20.9934 28.3971 21.5659 30.6868 23.1023C32.9764 24.6388 33.3982 24.9401 34.8142 26.2054C35.0664 26.4307 35.3405 26.6723 35.6271 26.9249L35.6274 26.9252C35.7558 27.0383 35.8867 27.1537 36.0193 27.2708V26.4678Z" fill="white"/>
<path d="M3 49.0331L3.84356 49.3946C3.84356 49.1115 5.95245 47.7587 10.2907 46.1409C15.4485 44.2175 23.5266 42.2866 26.9209 41.5616C30.034 40.8787 38.104 38.8863 45.4791 36.3797C52.8542 33.8732 58.1124 30.5953 59.8196 29.2697C62.3302 27.5625 67.8334 23.6059 69.7616 21.4367C71.6897 19.2676 73.4571 15.3912 74.0998 13.7242C73.6781 14.6079 70.1833 18.7855 64.5194 22.5815C57.8674 27.5465 46.9252 31.9611 42.2857 33.5478C39.514 34.552 31.7774 37.2715 23.0044 40.1155C14.2314 42.9595 6.01271 47.2456 3 49.0331Z" fill="#E92F42"/>
<path d="M22.2814 34.4527V34.3036H27.9502V34.4527L26.8929 35.3467L29.5455 39.6679L32.1424 35.4212L30.8811 34.4527V34.3036H35.1208V34.4527L33.8223 35.5143L30.7987 40.4502V44.1195L31.8375 45.1067V45.237H25.509V45.1067L26.5107 44.1195V40.5806L23.2645 35.3467L22.2814 34.4527Z" fill="white"/>
<path d="M38.0935 34.7847C38.5449 34.4929 40.4345 33.9092 42.1262 33.9092C43.4171 33.9092 45.2433 34.3707 45.2433 34.3707C45.2433 34.3707 45.9516 33.8928 45.966 33.9218C45.9805 33.9509 45.966 37.7275 45.966 37.7275L42.9995 35.2177C42.9995 35.2177 42.8748 35.1487 42.1826 35.1059C41.1266 35.1059 39.8603 36.0452 39.5738 37.2805C39.463 37.7123 39.3502 38.6419 39.3512 40.7449C39.3522 42.7565 40.4147 43.2548 40.9465 43.5342C41.1505 43.6708 41.9193 43.95 42.538 43.944C43.1568 43.9379 43.7029 43.6708 43.7957 43.5342V40.7449L42.59 39.7578V39.6088H47.45V39.7578L46.4112 40.7449V45.1593L44.6119 44.6005C44.6119 44.6005 42.6137 45.261 41.31 45.1593C40.0082 45.0577 38.9245 44.9618 37.5741 44.0976C36.2237 43.2334 35.5893 41.3906 35.4409 40.5773C35.3296 39.9875 35.2405 38.5024 35.7748 37.2805C36.309 36.0587 37.5432 35.1075 38.0935 34.7847Z" fill="white"/>
<path fill-rule="evenodd" clip-rule="evenodd" d="M48.4316 33.9324V34.0814L49.4704 35.05V43.7483L48.4316 44.7354V44.8658H54.2897V44.7354L53.1953 43.7483V40.079H53.9743L56.3858 43.9718L55.8479 44.7354V44.8658H61.0863V44.7354L59.6951 43.7483L57.0796 39.7437C57.5804 39.5823 58.6934 39.0359 59.1386 38.1419C59.6883 37.0379 59.4416 36.2975 59.3998 36.1719L59.3983 36.1675C59.3955 36.1591 59.3921 36.1465 59.3878 36.1302C59.3349 35.9319 59.1343 35.1797 57.9514 34.4912C56.9275 33.8952 54.166 33.8704 53.1953 33.9324H48.4316ZM53.1953 39.4457V34.5843C53.4859 34.5533 54.2378 34.5098 54.9204 34.5843C55.603 34.6588 56.0581 35.4101 56.2003 35.7764C56.2621 36.0496 56.3487 36.8679 56.2003 37.9556C56.0519 39.0434 54.8029 39.4022 54.1969 39.4457H53.1953Z" fill="white"/>
<path d="M13.9425 34.2708H8.12158V34.4198L9.12327 35.3138L12.6848 45.2041H16.5136L20.0195 35.4814L21.2994 34.4198V34.2708H17.2073V34.4198L18.3759 35.4814L15.6677 43.3229L12.9594 35.3138L13.9425 34.4198V34.2708Z" fill="white"/>
<path d="M11.1343 66.6875V65.603L20.3532 57.2879C20.9959 56.5849 23.4502 54.3957 28.1259 51.2625C32.8017 48.1293 38.2687 44.5341 40.4178 43.1282L47.347 38.6694C52.0227 35.5844 56.2445 32.3226 57.771 31.0774L60.1811 28.9685C59.2572 28.9484 57.771 28.7154 59.2171 27.9442C61.0247 26.9801 63.9169 24.2687 66.7488 21.979C69.0144 20.1473 72.5935 15.7126 74.0998 13.7242C73.7584 14.5477 72.8465 16.6405 71.9307 18.424C70.7858 20.6534 68.2552 23.3046 65.7245 26.0763C63.7 28.2936 59.8598 31.2983 58.1927 32.5235C56.2847 33.9093 51.8781 37.0787 49.5161 38.6694C47.1542 40.2601 39.534 45.1567 36.0192 47.4062C33.6894 49.013 28.1982 52.817 24.8722 55.179C21.5462 57.541 14.3277 63.8355 11.1343 66.6875Z" fill="#E92F42"/>
<path d="M36.0193 27.3009C37.252 28.3898 38.6266 29.6281 39.4538 30.6341C40.5685 31.9898 43.8669 36.2818 45.6901 39.3107C47.2876 41.9647 47.798 43.4066 48.0127 44.0134C48.0491 44.1161 48.077 44.1948 48.1002 44.2515C48.5923 45.5671 49.5765 48.6501 49.5765 50.4577C49.5765 52.7172 49.456 53.5909 48.5823 54.6755C47.7086 55.7601 45.8708 55.971 44.5452 55.8806C43.4848 55.8083 41.4924 55.0471 40.6287 54.6755V54.8864C41.5325 55.3383 43.6761 56.132 44.9971 56.2421C45.7202 56.3024 47.5579 56.453 49.2149 54.7659C49.5262 54.4445 50.1368 53.2896 50.0886 51.241C50.0284 48.6802 49.4861 46.5111 49.004 45.0951C48.522 43.6791 47.2266 40.7568 46.6541 39.8229C46.0817 38.8889 45.208 37.5031 44.4247 36.3281C43.6414 35.1532 41.0204 31.4777 39.3333 29.8207C37.9836 28.4951 37.1641 27.6214 36.9231 27.3503C36.6868 27.1158 36.3808 26.8255 36.0193 26.498V27.3009Z" fill="white"/>
</svg>
